<?xml version="1.0" encoding="iso-8859-1"?>
<!-- Generator: Adobe Illustrator 22.1.0, SVG Export Plug-In . SVG Version: 6.00 Build 0)  -->
<svg xmlns="http://www.w3.org/2000/svg" xmlns:xlink="http://www.w3.org/1999/xlink" version="1.1" id="Layer_1_1_" x="0px" y="0px" viewBox="0 0 64 64" style="enable-background:new 0 0 64 64;" xml:space="preserve" width="512" height="512">
<linearGradient id="SVGID_1_" gradientUnits="userSpaceOnUse" x1="32" y1="3" x2="32" y2="61" gradientTransform="matrix(1 0 0 -1 0 64)">
	<stop offset="0" style="stop-color:#9F2FFF"/>
	<stop offset="1" style="stop-color:#0BB1D3"/>
</linearGradient>
<path style="fill:url(#SVGID_1_);" d="M1,53h14.586l-2.301,2.301C12.894,55.113,12.462,55,12,55c-1.654,0-3,1.346-3,3s1.346,3,3,3  s3-1.346,3-3c0-0.462-0.113-0.894-0.301-1.285l8.815-8.815L22.1,46.486L17.586,51H3V13h58v38H46.414l-4.515-4.515l-1.414,1.414  l8.815,8.815C49.113,57.106,49,57.538,49,58c0,1.654,1.346,3,3,3s3-1.346,3-3s-1.346-3-3-3c-0.462,0-0.894,0.113-1.285,0.301  L48.414,53H63V3H1V53z M12,59c-0.551,0-1-0.448-1-1s0.449-1,1-1s1,0.448,1,1S12.551,59,12,59z M53,58c0,0.552-0.449,1-1,1  s-1-0.448-1-1s0.449-1,1-1S53,57.448,53,58z M61,5v6H3V5H61z M7,9H5V7h2V9z M11,9H9V7h2V9z M15,9h-2V7h2V9z M26.146,47.702  l2.314-1.157L29.279,49h5.441l0.819-2.455l2.314,1.157l3.848-3.848l-1.158-2.315l2.456-0.818V35.28l-2.456-0.818l1.158-2.315  l-3.848-3.848l-2.315,1.158L34.721,27H29.28l-0.818,2.456l-2.315-1.158l-3.848,3.848l1.158,2.315L21,35.279v5.441l2.456,0.818  l-1.158,2.315L26.146,47.702z M23,39.279V36.72l2.298-0.766l0.168-0.445c0.048-0.127,0.098-0.252,0.153-0.375l0.194-0.433  l-1.081-2.162l1.809-1.809l2.162,1.081l0.433-0.194c0.124-0.056,0.25-0.105,0.376-0.154l0.444-0.168l0.766-2.296h2.559l0.766,2.296  l0.444,0.168c0.127,0.048,0.253,0.098,0.376,0.154l0.433,0.194l2.162-1.081l1.809,1.809l-1.081,2.162l0.194,0.433  c0.055,0.123,0.105,0.248,0.153,0.375l0.168,0.445l2.298,0.766v2.559l-2.298,0.766l-0.168,0.445  c-0.048,0.127-0.098,0.252-0.153,0.375l-0.194,0.433l1.081,2.162l-1.809,1.809L35.3,44.188l-0.433,0.194  c-0.125,0.056-0.251,0.105-0.379,0.155l-0.441,0.169L33.279,47H30.72l-0.765-2.294l-0.441-0.169c-0.128-0.05-0.255-0.1-0.379-0.155  l-0.433-0.194l-2.162,1.081l-1.809-1.809l1.081-2.162l-0.194-0.433c-0.055-0.123-0.105-0.248-0.153-0.375l-0.168-0.445L23,39.279z   M32,43c2.757,0,5-2.243,5-5s-2.243-5-5-5s-5,2.243-5,5S29.243,43,32,43z M32,35c1.654,0,3,1.346,3,3s-1.346,3-3,3s-3-1.346-3-3  S30.346,35,32,35z M23.515,28.101L14.7,19.286C14.887,18.894,15,18.462,15,18c0-1.654-1.346-3-3-3s-3,1.346-3,3s1.346,3,3,3  c0.462,0,0.894-0.113,1.285-0.301l8.815,8.815L23.515,28.101z M11,18c0-0.551,0.449-1,1-1s1,0.449,1,1s-0.449,1-1,1S11,18.551,11,18  z M41.899,29.515l8.815-8.815C51.106,20.887,51.538,21,52,21c1.654,0,3-1.346,3-3s-1.346-3-3-3s-3,1.346-3,3  c0,0.462,0.113,0.894,0.301,1.285L40.486,28.1L41.899,29.515z M52,17c0.551,0,1,0.449,1,1s-0.449,1-1,1s-1-0.449-1-1  S51.449,17,52,17z M15,27H5v-2h10V27z M15,31H5v-2h10V31z M15,35H5v-2h10V35z M15,39H5v-2h10V39z M5,41h10v2H5V41z M59,27H49v-2h10  V27z M59,31H49v-2h10V31z M59,35H49v-2h10V35z M59,39H49v-2h10V39z M49,41h10v2H49V41z"/>
</svg>
